<?xml version="1.0" standalone="no"?>
<!DOCTYPE svg PUBLIC "-//W3C//DTD SVG 20010904//EN"
 "http://www.w3.org/TR/2001/REC-SVG-20010904/DTD/svg10.dtd">
<svg version="1.0" xmlns="http://www.w3.org/2000/svg"
 width="374.000000pt" height="374.000000pt" viewBox="0 0 374.000000 374.000000"
 preserveAspectRatio="xMidYMid meet">
<metadata>
Created by potrace 1.11, written by Peter Selinger 2001-2013
</metadata>
<g transform="translate(0.000000,374.000000) scale(0.100000,-0.100000)"
fill="#000000" stroke="none">
<path d="M1120 3010 l0 -540 -70 0 -70 0 0 -590 0 -590 70 0 70 0 0 -265 0
-265 240 0 240 0 0 265 c0 168 4 265 10 265 6 0 11 -146 12 -403 l3 -402 240
0 240 0 3 403 c1 256 6 402 12 402 7 0 10 -203 10 -575 l0 -575 245 0 245 0 0
575 0 575 55 0 55 0 0 590 0 590 -55 0 -55 0 0 230 0 230 -245 0 -245 0 0
-230 c0 -147 -4 -230 -10 -230 -6 0 -10 140 -10 400 l0 400 -245 0 -245 0 0
-400 c0 -260 -3 -400 -10 -400 -7 0 -10 187 -10 540 l0 540 -240 0 -240 0 0
-540z m980 -145 l0 -395 -235 0 -235 0 0 395 0 395 235 0 235 0 0 -395z m620
-985 l0 -580 -865 0 -865 0 0 580 0 580 865 0 865 0 0 -580z m-622 -987 l-3
-398 -230 0 -230 0 -3 398 -2 397 235 0 235 0 -2 -397z"/>
<path d="M1450 2236 c0 -21 6 -25 43 -31 23 -4 48 -12 55 -17 18 -15 18 -621
-1 -636 -7 -6 -32 -14 -55 -18 -36 -6 -42 -10 -42 -30 l0 -24 161 0 c160 0
160 0 157 22 -2 17 -13 25 -48 33 l-45 11 -3 152 -3 152 186 0 186 0 -3 -152
-3 -153 -42 -9 c-36 -7 -43 -13 -43 -32 l0 -24 150 0 150 0 0 23 c0 20 -7 25
-47 33 l-48 9 -3 314 c-1 205 1 318 8 326 6 7 28 15 50 19 34 5 40 10 40 31
l0 25 -150 0 -150 0 0 -24 c0 -19 7 -26 33 -31 56 -12 57 -16 57 -161 l0 -134
-185 0 -185 0 0 140 0 140 45 11 c38 10 45 15 45 35 l0 24 -155 0 -155 0 0
-24z"/>
</g>
</svg>
