<svg xmlns="http://www.w3.org/2000/svg" viewBox="0 0 389 723"><g data-name="Layer 2"><g data-name="Layer 1"><path fill-rule="evenodd" d="M82.92 647l-5.76 29.3 32.9 15.36 13.83-30.34z"/><path fill-rule="evenodd" d="M96.35 723.8l17-39.26s-19.22-8.81-34.77-15.2c-24.35 3.63-61.2 1.54-73.4-1C1.85 676.6 0 682.23 0 682.23zM321.84 650.19l14.16 13.1 30.6-22.5-10.8-14.28z"/><path fill-rule="evenodd" d="M363.9 637.19l25.73 33.74-55.21 43.33h-54.56l.12-14.32s38.68-7 38.56-6.89c8-9.53 14.5-32.52 14.5-32.52z"/><path fill="#aadaf1" fill-rule="evenodd" d="M268.45 338.14s17.94 132.48 24.3 146.75 67.92 142.53 67.92 142.53l-44.49 31.91S217.13 510 212.64 502c-2.9-5.12-10.63-35.61-10.63-35.61L125.73 674.1 75.18 651l53.07-307.52z"/><path fill="#73a9c3" fill-rule="evenodd" d="M214.72 340.2L175 341.71l.29 9.58zM176 376.49l4.55 148.32L202 466.56z"/><path fill="none" stroke="#0097f7" stroke-linecap="round" stroke-linejoin="round" stroke-width="1.7" d="M202.05 466.56l-29.79-103.84M316.12 588.63l-41.46-76.7c8.1-8.19 11.49-16.94-7.08-6.56-13.77 7.69-16.07 5.08-4-8.23 16.25-17.88 13.42-20.33-2.56-17.75M264.36 473S251 379.32 247.14 367.79M126.26 582.44c1.47-6.29 9.43-62.3 14.38-63.68 23.52-6.54 27.77-15.69 5.3-22.1-22-6.29-21.92-8.18-2.08-14.22 20.3-6.19 16.3-9.47 3.25-21.12-4.42-3.95 15.86-53.31 17-58.12"/><path fill="#f77f89" fill-rule="evenodd" d="M303.11 243c-.13-7.71 1.53-21.45-1.91-29.71s-26.15-4.7-26.15-4.7 28.18 42.08 28.06 34.41z"/><path fill="#0097f7" fill-rule="evenodd" d="M209.47 110.15c51.62 0 93.74 26.15 94.15 65.78.25 24.87 4.83 42.76 4.83 42.76l-45.77 11.38s15.9 109.17 10.32 113.76c-16.6 13.68-133.06 18.26-147.51 3.37-1.27-18.42 9.93-67.5 9.93-67.5s-35.54-83.78-16.28-123.29c18.25-37.45 66.23-44.18 87.5-44.91 1.17-.04 1.83-1.35 2.83-1.35z"/><path fill="#6a3416" fill-rule="evenodd" d="M240.06 42c.3-17.69-17.77-42-43.79-42-20.39 0-41.22 9.7-41.75 25.48-1.06-6.52-2.07-10.55-1.33-14.15-4.4-.22-13.25 11.13-13.25 26.29 0 5.86 4.57 28 17.57 27.73s62.61 17.49 62.61 17.49 3.26 4.77 7.66 4.41 12.73-8.61 12.8-13.16-4.05-12.73-4-15.26 3.17.83 3.48-16.83z"/><path fill="none" stroke="#000" stroke-linecap="round" stroke-linejoin="round" stroke-width="3.41" d="M177.84 161.64L168.67 195"/><path fill="#f77f89" fill-rule="evenodd" d="M151.92 64.71a38.7 38.7 0 1138.69 38.69 38.69 38.69 0 01-38.69-38.69z"/><path fill="#6a3416" fill-rule="evenodd" d="M150.06 50s5.2-1 12.85-12.32c9.54 1.8 25.24 1.72 38.62-2.32.17 8.07 6.09 21.28 14.24 19.82s11.49-21.1 11.49-21.1L208.05 14l-29.05.19-20.45 14.41z"/><path fill="#90415b" fill-rule="evenodd" d="M161.61 60.11c-.36-3.09.61-5.73 2.16-5.91s3.11 2.17 3.47 5.25-.61 5.73-2.17 5.91-3.07-2.17-3.46-5.25z"/><path fill="#f77f89" fill-rule="evenodd" d="M229.68 72.76c-1 6.15-3 35.4.17 41.62-7.07 7.12-27.8 10.19-38.66 7.1.85-8.44-2.65-16.69-4.52-20.06s43.98-34.82 43.01-28.66z"/><path fill="#90415b" fill-rule="evenodd" d="M187.45 55.36c-.36-3.08.61-5.72 2.16-5.91s3.11 2.17 3.46 5.26-.6 5.73-2.16 5.91-3.1-2.17-3.46-5.26z"/><path fill="none" stroke="#90415b" stroke-linecap="round" stroke-linejoin="round" stroke-width="1.7" d="M174.57 61.14c.31 3.64-2.61 17.4-3.23 19.53s2.71 2.92 2.71 2.92"/><path fill="#fff" fill-rule="evenodd" d="M153.86 76.84c.2 3.87 9.34 23.83 14.73 26.9s46 2.67 55.33-17.43c-7.66-1.19-12.85-7.69-18.91-21.6-13.54 2-28.89 0-31.36.13-2.71.16-9.23 9.16-19.79 12z"/><path fill="#0097f7" fill-rule="evenodd" d="M234.93 150.56c21.24-.41 63.36-3 67.59 15s8.25 48.87 5.93 53.1-45.57 9.59-45.57 9.59c-3.42-8.66-22.3-57.49-27.95-77.69z"/><path fill="#f77f89" fill-rule="evenodd" d="M280.26 269.89c-11.7 1.9-80.75-46.21-89.31-45.27s-30.53.1-30.53.1-12.5-47.91 14.17-49.68c1.65-.11 11.42 8.58 11.42 8.58s2.71-.86 4.6.69c3.45 2.82 14.67 15.57 20.28 17.59 9.44 3.41 86.05 17.9 89.72 24s7.72 39.44-20.35 43.99z"/><path fill="#f7d167" fill-rule="evenodd" d="M96.8 196h53.55c6.18 0 13.2 4.58 15.69 10.24l37.69 85.61c2.49 5.65-.5 10.23-6.68 10.23h-53.54c-6.18 0-13.21-4.58-15.7-10.23l-37.68-85.62c-2.49-5.66.5-10.23 6.67-10.23z"/><path fill="#f77f89" fill-rule="evenodd" d="M95.49 265.56c-2.55-6.58-4.37-15.67-.79-21.49s17.36-23.74 23.07-24.07 20.37 15.56 21.94 20.71 1 16.34-1.46 21.16-12.33 14.18-17.3 14.37-23.95-6.66-25.46-10.68z"/><path fill="#f77f89" fill-rule="evenodd" d="M94.08 252.41c-.69-10.62-5.32-22.12-8.46-29.92-2.1-5.19-.55-9.64 3-10.65s14.56 13.51 14.88 24.74-8.72 26.42-9.42 15.83z"/><path fill="none" stroke="#81666f" stroke-linecap="round" stroke-linejoin="round" stroke-width="1.7" d="M93.42 247a60.11 60.11 0 0110.07-15.41"/><path fill="none" stroke="#905f6f" stroke-linecap="round" stroke-linejoin="round" stroke-width="1.7" d="M107.62 248.72c0-5.71 11.64-22.36 16-24.4"/><path fill="none" stroke="#8b5d6c" stroke-linecap="round" stroke-linejoin="round" stroke-width="1.7" d="M119.05 255.44c.13-2.77 9.19-17.86 14.38-20.86"/><path fill="none" stroke="#aadaf1" stroke-linecap="round" stroke-linejoin="round" stroke-width="1.7" d="M140.33 166.86c-1 5.86-1.94 18.39.48 29.11M207.69 191.2l33.75.68"/><path fill="#f77f89" fill-rule="evenodd" stroke="#aadaf1" stroke-linecap="round" stroke-linejoin="round" stroke-width="1.7" d="M188.68 113.22c-.49 4.94-6.35 36.88 13.37 36.88 12.69 0 32.39-29.52 29.27-38.32"/><path fill="#f77f89" fill-rule="evenodd" d="M210.89 60.35a14.74 14.74 0 1114.74 14.73 14.74 14.74 0 01-14.74-14.73z"/><path fill="none" stroke="#fff" stroke-linecap="round" stroke-linejoin="round" stroke-width="1.7" d="M205.16 65s9.31-17 19.17-19.33M223.86 86.43L231.08 74"/><path fill="none" stroke="#aadaf1" stroke-linecap="round" stroke-linejoin="round" stroke-width="1.7" d="M257 213.12c-5.65-14.81-13.76-36.55-18.88-52.13"/><path fill="none" stroke="#c9c9c9" stroke-linecap="round" stroke-linejoin="round" stroke-width="3.41" d="M155 80.93c2.64 7.21 9.31 20.37 13.6 22.81 1.71 1 7 1.6 13.74 1.35"/><path fill="none" stroke="#7c7c7c" stroke-linecap="round" stroke-linejoin="round" stroke-width="1.7" d="M99.52 716.45L2.65 674.81M279.91 708.09l51.75-1.79 53.07-41.8"/></g></g></svg>
