<svg xmlns="http://www.w3.org/2000/svg" viewBox="0 0 193 48" fill="none">
<title>Hospital Escuela Eva Perón</title>
<path xmlns="http://www.w3.org/2000/svg" fill="#000" d="M17.71 2.96v1.135l-1.746.338a.71.71 0 00-.426.24.732.732 0 00-.142.458v12.742c0 .189.048.341.142.458.095.116.236.193.426.229l1.745.327V20h-6.818v-1.113l1.505-.316a.685.685 0 00.415-.23.713.713 0 00.153-.468V11.96h-8.03v5.924c0 .189.048.341.142.458a.685.685 0 00.415.229l1.614.316V20H.19v-1.113l1.746-.327c.189-.036.33-.113.425-.23a.704.704 0 00.142-.457V5.13a.67.67 0 00-.153-.458.662.662 0 00-.414-.24L.189 4.095V2.96h6.906v1.135l-1.615.338a.685.685 0 00-.415.229.744.744 0 00-.13.458v5.465h8.029V5.12a.686.686 0 00-.142-.447.734.734 0 00-.415-.24l-1.505-.338V2.96h6.807zm1.859 10.876c0-1.142.156-2.13.469-2.967.32-.836.749-1.52 1.287-2.05a5.036 5.036 0 011.898-1.179 7.08 7.08 0 012.335-.382c.967 0 1.803.157 2.509.47a4.44 4.44 0 011.745 1.297c.458.553.797 1.23 1.015 2.03.218.792.327 1.672.327 2.64 0 1.141-.16 2.13-.48 2.967-.313.829-.738 1.509-1.276 2.04a5.022 5.022 0 01-1.91 1.178 7.081 7.081 0 01-2.334.382c-.967 0-1.807-.153-2.52-.458a4.602 4.602 0 01-1.734-1.298c-.451-.56-.786-1.237-1.004-2.03-.218-.8-.327-1.68-.327-2.64zm9 .077c0-.822-.055-1.568-.164-2.237-.102-.669-.28-1.236-.535-1.701a2.778 2.778 0 00-1.014-1.091c-.422-.255-.95-.382-1.582-.382-1.062 0-1.85.403-2.367 1.21-.51.808-.764 2.106-.764 3.895 0 .815.051 1.557.153 2.226.109.669.287 1.24.535 1.713.254.465.592.829 1.014 1.09.43.255.964.382 1.604.382 1.054 0 1.836-.404 2.345-1.21.517-.815.775-2.114.775-3.895zm5.24 5.41a11.595 11.595 0 01-.087-1.734c.014-.582.058-1.12.13-1.614h1.244l.426 1.647c.058.247.123.436.196.567.073.124.19.236.35.338.188.117.48.244.872.382a4.2 4.2 0 001.375.207c.763 0 1.341-.174 1.734-.523.4-.35.6-.811.6-1.386 0-.349-.076-.643-.229-.883a2.14 2.14 0 00-.644-.666 6.13 6.13 0 00-1.058-.567 60.043 60.043 0 00-1.45-.6c-.975-.407-1.775-.865-2.4-1.375-.626-.516-.939-1.272-.939-2.269 0-.589.113-1.105.338-1.549.226-.45.538-.825.938-1.123a4.249 4.249 0 011.462-.688 7.164 7.164 0 011.866-.229c.633 0 1.29.07 1.974.207.691.139 1.259.306 1.702.502.03.524.026 1.058-.01 1.604-.037.538-.103 1.069-.197 1.593h-1.167l-.371-1.484a1.753 1.753 0 00-.208-.513 1.184 1.184 0 00-.403-.37 3.263 3.263 0 00-1.538-.393c-.633-.008-1.164.134-1.593.425-.422.291-.633.742-.633 1.353 0 .37.08.684.24.938a2.4 2.4 0 00.655.644c.269.181.574.341.916.48.35.138.706.276 1.07.414.501.19.988.397 1.461.622.473.226.887.49 1.244.796.363.306.654.666.872 1.08.226.415.339.906.339 1.473 0 .582-.12 1.102-.36 1.56a3.25 3.25 0 01-.993 1.145c-.422.306-.931.539-1.528.699-.596.16-1.25.24-1.963.24-.866 0-1.67-.102-2.411-.306-.735-.203-1.342-.418-1.822-.643zm17.54-.305c1.128 0 2.037-.389 2.728-1.167.69-.785 1.047-2.142 1.069-4.07.014-1.636-.248-2.865-.786-3.687-.53-.821-1.356-1.232-2.476-1.232-.611 0-1.153.102-1.626.305-.472.204-.854.44-1.145.71v8.607c.255.16.575.29.96.392.393.095.818.142 1.276.142zm.175 5.291v1.102h-6.677v-1.102l1.353-.218c.19-.03.331-.102.426-.218.102-.11.152-.259.152-.448V9.887a.75.75 0 00-.141-.469.58.58 0 00-.404-.229l-1.538-.218V7.9a15.313 15.313 0 011.876-.414 13.39 13.39 0 011.898-.163l.393.381.164 1.255c.4-.48.905-.884 1.516-1.21.618-.328 1.37-.492 2.258-.492.691 0 1.331.117 1.92.35.597.225 1.11.577 1.538 1.057.43.48.768 1.099 1.015 1.855.247.75.37 1.64.37 2.673 0 1.098-.145 2.087-.435 2.967-.291.873-.71 1.61-1.255 2.215a5.38 5.38 0 01-1.996 1.396c-.786.32-1.673.48-2.662.48-.335 0-.698-.026-1.091-.077a6.298 6.298 0 01-1.091-.218v3.48c0 .19.05.338.153.448.102.116.25.185.447.207l1.81.218zM64.228 7.673v10.32c0 .196.051.353.153.469.102.116.247.189.436.218l1.342.207V20h-6.207v-1.113l1.342-.207a.697.697 0 00.436-.218.643.643 0 00.164-.458V9.876c0-.196-.051-.352-.153-.469-.095-.116-.236-.189-.425-.218l-1.517-.218V7.9c.626-.188 1.306-.326 2.04-.414.735-.094 1.415-.149 2.04-.163l.35.349zm.175-3.731c0 .465-.15.847-.448 1.145-.298.291-.687.437-1.167.437s-.869-.146-1.167-.437c-.298-.298-.447-.68-.447-1.145 0-.458.149-.833.447-1.124.298-.29.687-.436 1.167-.436s.87.145 1.168.436c.298.291.447.666.447 1.124zm5.082 12.97V9.179l-1.888-.24V7.902l1.386-.186c.196-.029.345-.094.447-.196a.951.951 0 00.23-.425l.774-3.208h1.353l.032 3.71h4.08V9.09H71.83v7.047c0 .946.16 1.578.48 1.898.327.32.767.48 1.32.48.458 0 .88-.083 1.266-.25.392-.168.73-.408 1.014-.72l.677.621a3.364 3.364 0 01-1.517 1.55 4.826 4.826 0 01-2.247.523c-.444 0-.87-.05-1.276-.153a2.725 2.725 0 01-1.07-.523c-.298-.255-.538-.597-.72-1.026-.181-.429-.272-.97-.272-1.625zm12.815 1.8c.524 0 1.055-.098 1.593-.294a4.805 4.805 0 001.375-.774V14.73l-2.084.185c-.88.073-1.556.273-2.03.6-.465.328-.697.826-.697 1.495 0 .538.149.956.447 1.255.306.298.77.447 1.396.447zm5.04 1.474c-.523 0-.952-.131-1.287-.393-.334-.27-.567-.659-.698-1.168-.458.495-1.03.891-1.713 1.19a5.54 5.54 0 01-2.192.436c-.495 0-.957-.066-1.386-.197-.43-.13-.8-.32-1.113-.567a2.82 2.82 0 01-.73-.938 3.037 3.037 0 01-.262-1.287c0-.633.145-1.164.436-1.593a3.34 3.34 0 011.124-1.036 5.8 5.8 0 011.549-.59c.574-.13 1.138-.217 1.69-.261l2.51-.207v-1.473c0-1.12-.226-1.91-.677-2.367-.443-.459-1.123-.688-2.04-.688-.69 0-1.345.117-1.963.35a5.07 5.07 0 00-1.702 1.069l-.556-.557c.138-.414.363-.782.676-1.102.313-.327.68-.6 1.102-.818a5.69 5.69 0 011.44-.49 7.724 7.724 0 011.658-.175c1.447 0 2.534.367 3.262 1.101.727.728 1.09 1.844 1.09 3.35v6.174c0 .233.051.404.153.513.11.102.266.163.47.185l1.254.11v1.036c-.182.065-.491.145-.927.24-.43.101-.819.152-1.168.152zM95.15.735v17.28c0 .196.05.349.152.458.102.109.247.178.436.207l1.582.23V20h-6.687v-1.113l1.582-.207a.727.727 0 00.436-.207.605.605 0 00.164-.447V2.906c0-.197-.055-.35-.164-.459a.727.727 0 00-.436-.207l-1.659-.23V1.008c.313-.094.651-.178 1.015-.25A18.314 18.314 0 0193.786.45c.363-.036.701-.058 1.014-.066l.35.35zm22.507 6.414h-1.211l-.502-2.062a.788.788 0 00-.218-.392 1.15 1.15 0 00-.414-.251c-.248-.095-.571-.16-.971-.197a11.826 11.826 0 00-1.298-.065h-2.728v6.414l5.313-.185v1.68l-5.313-.142v6.72h3.349c.473 0 .928-.018 1.364-.055.444-.036.789-.101 1.036-.196a.94.94 0 00.382-.25c.095-.102.171-.233.229-.393l.819-2.379 1.2.175a23 23 0 01-.131 2.182 29.46 29.46 0 01-.328 2.247H105.57v-1.113l1.745-.316a.697.697 0 00.426-.23.707.707 0 00.142-.457V5.12a.654.654 0 00-.153-.447.664.664 0 00-.415-.24l-1.745-.338V2.96h12.109c.058.676.084 1.36.076 2.05 0 .692-.032 1.405-.098 2.14zm3.486 12.175a11.503 11.503 0 01-.087-1.735c.014-.582.058-1.12.131-1.614h1.243l.426 1.647c.058.247.123.436.196.567.073.124.189.236.349.338.189.117.48.244.873.382a4.2 4.2 0 001.375.207c.763 0 1.341-.174 1.734-.523.4-.35.6-.811.6-1.386 0-.349-.076-.643-.229-.883a2.133 2.133 0 00-.644-.666 6.099 6.099 0 00-1.058-.567 59.562 59.562 0 00-1.451-.6c-.974-.407-1.774-.865-2.4-1.375-.625-.516-.938-1.272-.938-2.269 0-.589.113-1.105.338-1.549.226-.45.538-.825.938-1.123a4.259 4.259 0 011.462-.688 7.168 7.168 0 011.866-.229c.632 0 1.291.07 1.974.207.691.139 1.258.306 1.702.502a13.03 13.03 0 01-.011 1.604c-.036.538-.102 1.069-.196 1.593h-1.167l-.371-1.484a1.737 1.737 0 00-.208-.513 1.177 1.177 0 00-.403-.37 3.263 3.263 0 00-1.538-.393c-.633-.008-1.164.134-1.593.425-.422.291-.633.742-.633 1.353 0 .37.08.684.24.938.167.247.386.462.655.644.269.181.574.341.916.48.349.138.705.276 1.069.414.502.19.989.397 1.462.622.473.226.887.49 1.244.796.363.306.654.666.872 1.08.226.415.338.906.338 1.473 0 .582-.12 1.102-.36 1.56-.232.451-.563.833-.992 1.145-.422.306-.931.539-1.528.699-.596.16-1.25.24-1.963.24a9.081 9.081 0 01-2.411-.306c-.735-.203-1.342-.418-1.822-.643zm11.431-5.39c0-.96.127-1.847.382-2.661.262-.822.644-1.528 1.145-2.117a5.143 5.143 0 011.888-1.396c.756-.335 1.625-.502 2.607-.502.691 0 1.389.077 2.095.23.712.152 1.283.337 1.712.556a14.08 14.08 0 01-.011 1.843 18.44 18.44 0 01-.207 1.833h-1.2l-.458-1.822a3.61 3.61 0 00-.164-.513.999.999 0 00-.294-.392 2.223 2.223 0 00-.72-.36 2.997 2.997 0 00-.993-.153c-1.018 0-1.807.41-2.367 1.233-.56.822-.84 2.062-.84 3.72 0 1.738.312 3.04.938 3.905.633.866 1.52 1.298 2.662 1.298.683 0 1.294-.134 1.832-.403.539-.27.975-.586 1.31-.95l.665.6c-.349.72-.916 1.299-1.702 1.735-.778.43-1.702.644-2.771.644-.909 0-1.712-.157-2.411-.47a4.788 4.788 0 01-1.723-1.32c-.451-.56-.793-1.228-1.026-2.007a8.824 8.824 0 01-.349-2.53zm23.432 6.252c-.574 0-1.022-.15-1.342-.448-.32-.298-.541-.683-.665-1.156a6.09 6.09 0 01-1.658 1.21c-.626.306-1.368.459-2.226.459-1.36 0-2.349-.375-2.967-1.124-.611-.756-.916-1.898-.916-3.425V9.844a.69.69 0 00-.142-.448c-.087-.123-.229-.2-.426-.229l-1.363-.24V7.858a11.883 11.883 0 011.963-.382 19.981 19.981 0 011.953-.152l.349.349v7.625c0 1.164.167 2.018.502 2.564.335.545.96.818 1.876.818.539 0 1.055-.087 1.549-.262a4.509 4.509 0 001.408-.807V9.844a.67.67 0 00-.153-.459.63.63 0 00-.425-.229l-1.626-.261v-1.07c.618-.16 1.316-.283 2.095-.37.778-.088 1.476-.131 2.094-.131l.349.349v10.265c0 .255.058.433.175.535a.866.866 0 00.458.174l1.244.11v1.036c-.24.08-.564.163-.971.25a5.045 5.045 0 01-1.135.143zm9.587-11.684c-.785 0-1.436.273-1.953.818-.516.538-.851 1.4-1.003 2.585h5.487l.022-.24a3.41 3.41 0 00.011-.272c0-.851-.222-1.546-.666-2.084-.443-.538-1.076-.807-1.898-.807zm4.855 8.792c-.291.88-.859 1.597-1.702 2.15-.844.545-1.891.818-3.142.818-.931 0-1.745-.157-2.444-.47a4.788 4.788 0 01-1.723-1.32c-.451-.56-.789-1.228-1.015-2.007a9.122 9.122 0 01-.338-2.541c0-1.04.138-1.975.415-2.804.276-.83.669-1.527 1.178-2.095a4.967 4.967 0 011.843-1.309c.72-.305 1.52-.458 2.4-.458.677 0 1.295.095 1.855.284.56.182 1.04.45 1.44.807.4.356.709.804.927 1.342.226.538.338 1.16.338 1.865a10.591 10.591 0 01-.12 1.506h-7.811V13.4c0 .982.095 1.81.284 2.487.189.67.447 1.207.775 1.615.327.4.716.687 1.167.862.451.174.938.261 1.462.261.712 0 1.371-.16 1.974-.48a3.8 3.8 0 001.451-1.298l.786.447zm6.381-16.56v17.28c0 .197.051.35.153.459.101.109.247.178.436.207l1.582.23V20h-6.687v-1.113l1.581-.207a.73.73 0 00.437-.207c.109-.11.163-.258.163-.447V2.906c0-.197-.054-.35-.163-.459a.73.73 0 00-.437-.207l-1.658-.23V1.008a10.9 10.9 0 011.015-.25 18.228 18.228 0 012.214-.306c.364-.036.702-.058 1.015-.066l.349.35zm8.157 17.979a4.63 4.63 0 001.593-.295 4.801 4.801 0 001.374-.774V14.73l-2.083.185c-.88.073-1.557.273-2.03.6-.465.328-.698.826-.698 1.495 0 .538.149.956.448 1.255.305.298.77.447 1.396.447zm5.04 1.473c-.524 0-.953-.131-1.287-.393-.335-.27-.568-.659-.699-1.168a5.05 5.05 0 01-1.712 1.19 5.543 5.543 0 01-2.193.436c-.495 0-.956-.066-1.385-.197-.43-.13-.8-.32-1.113-.567a2.817 2.817 0 01-.731-.938 3.031 3.031 0 01-.262-1.287c0-.633.146-1.164.436-1.593.291-.429.666-.774 1.124-1.036a5.812 5.812 0 011.549-.59 11.8 11.8 0 011.691-.261l2.509-.207v-1.473c0-1.12-.225-1.91-.676-2.367-.444-.459-1.124-.688-2.04-.688-.691 0-1.346.117-1.964.35a5.072 5.072 0 00-1.702 1.069l-.556-.557c.138-.414.364-.782.676-1.102.313-.327.68-.6 1.102-.818a5.686 5.686 0 011.44-.49 7.727 7.727 0 011.658-.175c1.448 0 2.535.367 3.262 1.101.727.728 1.091 1.844 1.091 3.35v6.174c0 .233.051.404.153.513.109.102.265.163.469.185l1.254.11v1.036c-.181.065-.49.145-.927.24a5.099 5.099 0 01-1.167.152zM12.276 34.15h-1.21l-.502-2.063a.794.794 0 00-.219-.393 1.147 1.147 0 00-.414-.25c-.247-.095-.571-.16-.971-.197a11.798 11.798 0 00-1.298-.065H4.935v6.414l5.312-.185v1.68l-5.312-.142v6.72h3.349c.472 0 .927-.018 1.363-.054.444-.037.79-.102 1.037-.197a.946.946 0 00.382-.25c.094-.102.17-.233.228-.393l.819-2.379 1.2.175c-.008.705-.051 1.433-.131 2.182-.08.749-.19 1.498-.328 2.247H.19v-1.113l1.746-.316c.189-.036.33-.113.425-.23a.704.704 0 00.142-.457V32.12c0-.182-.051-.33-.153-.447a.663.663 0 00-.414-.24l-1.746-.338V29.96H12.3c.057.676.083 1.36.075 2.05 0 .692-.032 1.404-.098 2.14zm7.883 13.035L15.98 36.484a.824.824 0 00-.25-.36 1.023 1.023 0 00-.393-.218l-.818-.23v-1.08h5.847v1.08l-1.898.328 3.196 8.89 3.033-8.88-1.866-.338v-1.08h4.735v1.08l-.818.23c-.16.043-.299.108-.415.196a.751.751 0 00-.24.37L22.21 47.186h-2.05zm13.098-1.472c.524 0 1.055-.099 1.593-.295a4.805 4.805 0 001.375-.774V41.73l-2.084.185c-.88.073-1.556.273-2.029.6-.466.328-.698.826-.698 1.495 0 .538.149.956.447 1.255.305.298.771.447 1.396.447zm5.04 1.472c-.523 0-.952-.13-1.287-.392-.334-.27-.567-.658-.698-1.167a5.05 5.05 0 01-1.713 1.189 5.54 5.54 0 01-2.192.436c-.495 0-.957-.066-1.386-.197-.429-.13-.8-.32-1.113-.567a2.822 2.822 0 01-.73-.938 3.039 3.039 0 01-.262-1.287c0-.633.145-1.164.436-1.593.29-.429.665-.774 1.124-1.036a5.802 5.802 0 011.549-.59c.574-.13 1.138-.218 1.69-.261l2.51-.207v-1.473c0-1.12-.226-1.91-.677-2.367-.443-.459-1.123-.688-2.04-.688-.69 0-1.345.117-1.963.35a5.067 5.067 0 00-1.702 1.069l-.556-.557c.138-.414.363-.782.676-1.102.313-.327.68-.6 1.102-.818.429-.218.909-.382 1.44-.49a7.722 7.722 0 011.658-.175c1.447 0 2.534.367 3.262 1.102.727.727 1.09 1.843 1.09 3.349v6.174c0 .233.051.404.153.513.11.102.266.163.47.185l1.254.11v1.036c-.182.065-.49.145-.927.24-.43.102-.819.152-1.168.152zm17.251-7.941c.517 0 1.011-.073 1.484-.218a3.12 3.12 0 001.254-.753c.364-.35.651-.819.862-1.408.218-.596.327-1.334.327-2.214 0-1.317-.323-2.251-.97-2.804-.648-.56-1.63-.84-2.946-.84-.502 0-.92.022-1.255.066-.327.036-.621.058-.883.065v8.03c.356.021.69.04 1.004.054.32.014.694.022 1.123.022zm1.07 6.643V47h-7.943v-1.113l1.768-.316a.631.631 0 00.403-.218.653.653 0 00.142-.426v-12.85a.67.67 0 00-.13-.393.544.544 0 00-.35-.23l-1.833-.36V29.96h3.546c.334 0 .636-.007.905-.022.277-.014.553-.032.83-.054.283-.022.592-.04.927-.055.341-.015.749-.022 1.221-.022 1.12 0 2.062.11 2.826.328.764.218 1.37.53 1.822.938.458.407.782.912.97 1.516.197.604.295 1.284.295 2.04 0 .916-.16 1.742-.48 2.477a5.183 5.183 0 01-1.342 1.843c-.567.495-1.25.873-2.05 1.135a8.233 8.233 0 01-2.597.392c-.356 0-.713-.007-1.069-.021-.349-.022-.702-.04-1.058-.055v4.527c0 .16.047.298.142.415a.59.59 0 00.392.185l2.662.36zm12.97-10.385c-.786 0-1.437.273-1.953.818-.517.538-.851 1.4-1.004 2.586h5.487l.022-.24c.007-.088.01-.179.01-.273 0-.851-.221-1.546-.665-2.084-.443-.538-1.076-.807-1.898-.807zm4.854 8.792c-.291.88-.858 1.597-1.702 2.15-.844.545-1.891.818-3.142.818-.93 0-1.745-.157-2.444-.47a4.794 4.794 0 01-1.723-1.32c-.451-.56-.79-1.228-1.015-2.007a9.103 9.103 0 01-.338-2.541c0-1.04.138-1.975.415-2.804.276-.83.669-1.527 1.178-2.094a4.969 4.969 0 011.843-1.31c.72-.305 1.52-.458 2.4-.458.677 0 1.295.095 1.855.284.56.182 1.04.45 1.44.807.4.357.71.804.927 1.342.226.538.339 1.16.339 1.865 0 .204-.011.451-.033.742-.022.284-.051.538-.087.764h-7.811V40.4c0 .982.094 1.81.283 2.487.19.67.448 1.207.775 1.615a2.8 2.8 0 001.167.862c.45.174.938.262 1.462.262.713 0 1.37-.16 1.974-.48a3.804 3.804 0 001.451-1.299l.786.447zm9.447 1.626V47h-7.091v-1.113l1.341-.207a.727.727 0 00.437-.207.643.643 0 00.163-.459v-8.083c0-.218-.047-.39-.141-.513-.088-.123-.237-.2-.448-.229l-1.505-.218V34.9a13.31 13.31 0 011.865-.414c.67-.102 1.288-.156 1.855-.163l.37.349.252 1.996c.225-.313.494-.614.807-.905.313-.291.647-.546 1.004-.764.356-.225.73-.404 1.123-.535.4-.138.797-.207 1.19-.207.225 0 .483.026.774.076.29.051.527.124.709.219.05.61.05 1.302 0 2.073-.044.77-.13 1.472-.262 2.105h-1.145l-.317-1.691c-.05-.24-.134-.407-.25-.502-.11-.094-.273-.142-.492-.142a4.126 4.126 0 00-1.57.306c-.531.21-1.026.545-1.484 1.004v7.308c0 .197.05.353.153.47a.74.74 0 00.458.196l2.203.24zm4.469-5.084c0-1.142.156-2.13.469-2.967.32-.836.749-1.52 1.287-2.05a5.036 5.036 0 011.898-1.179 7.08 7.08 0 012.335-.382c.967 0 1.803.156 2.509.47a4.441 4.441 0 011.745 1.297c.459.553.797 1.23 1.015 2.03.218.792.327 1.672.327 2.64 0 1.141-.16 2.13-.48 2.967-.313.829-.738 1.509-1.276 2.04a5.021 5.021 0 01-1.91 1.178 7.08 7.08 0 01-2.334.382c-.967 0-1.807-.153-2.52-.458a4.602 4.602 0 01-1.734-1.299c-.451-.56-.786-1.236-1.004-2.029-.218-.8-.327-1.68-.327-2.64zm9 .077c0-.822-.055-1.567-.164-2.237-.102-.669-.28-1.236-.535-1.702a2.779 2.779 0 00-1.014-1.09c-.422-.255-.95-.382-1.582-.382-1.062 0-1.85.404-2.367 1.21-.51.808-.764 2.106-.764 3.895 0 .815.051 1.557.153 2.226.11.669.287 1.24.535 1.712.254.466.592.83 1.014 1.091.43.255.964.382 1.604.382 1.054 0 1.836-.404 2.345-1.21.517-.815.775-2.114.775-3.895zm-4.244-7.658l-.72-.775 3.96-4.69 1.593 1.384c-.226.291-.52.615-.884.971-.364.357-.764.717-1.2 1.08-.429.357-.883.713-1.364 1.07-.472.349-.934.669-1.385.96zm15.168 12.632V47h-6.055v-1.113l1.342-.207a.694.694 0 00.436-.218.639.639 0 00.164-.458v-8.128c0-.196-.051-.352-.153-.469-.094-.116-.236-.189-.425-.218l-1.516-.218V34.9a12.16 12.16 0 011.887-.414 13.954 13.954 0 011.898-.163l.382.382.163 1.341c.604-.64 1.284-1.09 2.04-1.352a6.997 6.997 0 012.302-.393c1.448 0 2.433.422 2.957 1.265.523.844.785 2.019.785 3.524v5.923c0 .19.051.342.153.459.109.109.254.178.436.207l1.342.207V47h-6.044v-1.113l1.189-.207a.788.788 0 00.415-.196c.116-.11.175-.266.175-.47v-5.498c0-1.2-.164-2.094-.491-2.683-.328-.597-.964-.895-1.909-.895-.575 0-1.142.087-1.702.262-.56.174-1.077.44-1.549.796v8.008c0 .189.051.342.152.458.102.109.244.182.426.218l1.2.207z"/></svg>
