<svg xmlns="http://www.w3.org/2000/svg" viewBox="0 0 76 148"  fill="none"><path fill="red" stroke="#000" d="M6.5.5h20v120h-20z"/><path fill="#fff" stroke="#000" d="M28.5 12.5h20v120h-20z"/><path fill="#4F81BD" stroke="#000" d="M50.5 27.5h20v120h-20z"/><path fill="#fff" stroke="#000" d="M.5 47.5h75v50H.5z"/><path fill="green" d="M55.418 55.92v2.27l-3.49.675c-.364.073-.648.233-.852.48-.189.248-.283.553-.283.917v25.484c0 .378.094.683.283.916.19.232.473.385.851.458l3.491.654V90H41.782v-2.225l3.01-.633c.364-.073.64-.226.83-.458.203-.248.305-.56.305-.938V73.92H29.87v11.847c0 .379.095.684.284.917.189.232.465.385.829.458l3.229.633V90H20.378v-2.225l3.491-.655c.378-.073.662-.226.851-.458.19-.233.284-.538.284-.916V60.262c0-.378-.102-.684-.306-.916-.189-.248-.465-.408-.829-.48l-3.49-.677V55.92h13.81v2.27l-3.229.675c-.364.073-.64.226-.83.459-.174.232-.26.538-.26.916v10.93h16.057V60.24c0-.364-.094-.662-.283-.895-.19-.232-.466-.392-.83-.48l-3.01-.676V55.92h13.614z"/></svg>
